# xmcd
#
# Track frame offsets:
#  150
#  23000
#  41065
#  62908
#  82992
#  97286
#  113591
#  136342
#  152821
#  166892
#  183502
#  200682
#  234954
#
# Disc length: 3408 seconds
#
# Revision: 0
# Processed by: cddbd v1.5.1PL2 Copyright (c) Steve Scherf et al.
# Submitted via: Collectorz.com_Music_Collector 6.10
#
DISCID=a90d4e0d
DTITLE=The Sound - Dutch Radio Recordings: 4.  01.07.84 Den Haag, Parkpop Festival
DYEAR=2006
DGENRE=New Wave - Rock
TTITLE0=Unwritten Law
TTITLE1=Winning
TTITLE2=Under You
TTITLE3=Total Recall
TTITLE4=The Fire
TTITLE5=Burning Part Of Me
TTITLE6=Monument
TTITLE7=Counting The Days
TTITLE8=Golden Soldiers
TTITLE9=Sense Of Purpose
TTITLE10=Heartland
TTITLE11=New Dark Age
TTITLE12=Party Of The Mind
EXTD=
EXTT0=
EXTT1=
EXTT2=
EXTT3=
EXTT4=
EXTT5=
EXTT6=
EXTT7=
EXTT8=
EXTT9=
EXTT10=
EXTT11=
EXTT12=
PLAYORDER=
